<?xml version="1.0" encoding="utf-8"?>
<!-- Generator: Adobe Illustrator 26.0.3, SVG Export Plug-In . SVG Version: 6.00 Build 0)  -->
<svg version="1.1" id="Layer_1" xmlns="http://www.w3.org/2000/svg" xmlns:xlink="http://www.w3.org/1999/xlink" x="0px" y="0px"
	 viewBox="0 0 25.9 23.6" style="enable-background:new 0 0 25.9 23.6;" xml:space="preserve">
<style type="text/css">
	.st0{fill:#56A169;}
</style>
<g id="Layer_2_00000023258449590368716040000013073676356458985912_">
	<g id="Layer_1-2">
		<g id="SvgjsG14118">
			<path class="st0" d="M21.5,14.8c-0.2,0-0.3,0-0.5,0c-1.3-0.8-2.4-1.9-3.2-3.3c-0.8-1.3-1.2-2.9-1.3-4.4c1.5-2,1.1-4.7-0.9-6.2
				s-4.7-1.1-6.2,0.9C8.2,3.3,8.2,5.4,9.4,7c0,1.6-0.4,3.1-1.3,4.5c-0.8,1.3-1.9,2.5-3.2,3.3c-0.2,0-0.3,0-0.5,0
				c-2.4,0-4.4,2-4.4,4.4s2,4.4,4.4,4.4c1.7,0,3.3-1,4.1-2.6c1.4-0.8,2.9-1.2,4.5-1.2c1.6,0,3.1,0.4,4.5,1.1c1,2.2,3.6,3.2,5.8,2.2
				s3.2-3.6,2.2-5.8C24.8,15.8,23.2,14.8,21.5,14.8L21.5,14.8z M8.5,17.3c-0.1-0.3-0.3-0.5-0.5-0.8c0.1-3.2,1.8-6.1,4.6-7.7h0.7
				c1.4,0.8,2.5,2,3.3,3.3c0.8,1.3,1.2,2.9,1.3,4.4c-0.2,0.2-0.3,0.5-0.4,0.7c-1.4,0.8-2.9,1.2-4.5,1.2C11.4,18.5,9.8,18.1,8.5,17.3
				L8.5,17.3z"/>
		</g>
	</g>
</g>
</svg>
